<?xml version="1.0" encoding="utf-8"?><!DOCTYPE svg PUBLIC "-//W3C//DTD SVG 1.1//EN" "http://www.w3.org/Graphics/SVG/1.1/DTD/svg11.dtd"><svg version="1.1" id="Contours" xmlns="http://www.w3.org/2000/svg" xmlns:xlink="http://www.w3.org/1999/xlink" x="0px" y="0px" width="1211.000000px" height="1211.000000px" viewBox="0.000000 0.000000 1211.000000 1677.000000" enable-background="new 0 0 1211.000000 1211.000000" xml:space="preserve" stroke="black" fill="none" stroke-linecap='round' stroke-linejoin='round'><path class="selected"  fill="#000000" opacity="1.000000" stroke="none" 
 	d="
M731.000000 0.000000 C733.166687 0.000000 735.333313 0.000000 737.750000 0.250001 C741.029602 1.666669 744.438416 2.311625 746.975342 4.155976 C749.228821 5.794210 751.220154 4.432808 753.228760 5.000002 C753.485840 3.333337 753.742920 1.666670 754.000000 0.000002 C755.166687 0.000000 756.333313 0.000000 757.750000 0.250011 C763.847168 3.986144 769.507324 7.848197 775.584595 10.871998 C785.177063 15.644892 795.137085 19.675398 804.770630 24.370762 C810.559204 27.192120 815.895325 30.937038 821.666382 33.800137 C828.592224 37.236172 835.851257 39.996460 842.809387 43.372360 C852.996399 48.314800 863.103760 53.430450 873.136963 58.678936 C887.042786 65.953239 900.794922 73.522011 914.722473 80.753609 C920.434631 83.719521 926.597534 85.828575 932.260193 88.875862 C939.840210 92.954971 947.029419 97.757980 954.589600 101.877342 C959.022827 104.292923 964.002686 105.699104 968.461914 108.074989 C973.770325 110.903313 978.917664 114.088150 983.894104 117.472496 C991.101440 122.373962 998.135925 127.534302 1005.162781 132.694946 C1010.782898 136.822449 1016.285706 141.109756 1021.832642 145.336609 C1024.726074 147.541428 1027.674805 149.681641 1030.470459 152.005127 C1035.609863 156.276657 1040.514526 160.841690 1045.777832 164.950241 C1051.188965 169.174088 1057.155029 172.704193 1062.439087 177.069397 C1069.762817 183.119537 1076.675049 189.667526 1083.765869 195.999710 C1092.255859 203.581223 1100.941650 210.957108 1109.177612 218.804947 C1115.592041 224.917007 1121.581055 231.495285 1127.516113 238.085297 C1133.782349 245.043137 1139.600830 252.405746 1145.906860 259.325623 C1152.963379 267.069000 1160.622314 274.275024 1167.486572 282.177460 C1171.669922 286.993439 1174.884766 292.657745 1178.468018 297.985809 C1181.717651 302.817688 1185.101074 307.580963 1188.007568 312.615692 C1190.478882 316.896454 1192.597168 321.425964 1194.400513 326.029938 C1195.443481 328.692993 1195.246826 331.822235 1196.148438 334.564026 C1198.079590 340.437073 1200.748291 346.089264 1202.370850 352.034912 C1203.558228 356.385254 1202.439087 361.621307 1204.361084 365.452606 C1207.004272 370.720825 1206.383545 376.299438 1207.988525 381.546082 C1209.049072 385.013397 1210.000000 388.514191 1211.000000 392.000000 C1211.000000 459.500000 1211.000000 527.000000 1210.750000 594.750000 C1210.333252 596.618591 1210.403687 598.307739 1209.947388 599.840088 C1209.164062 602.470886 1207.656738 604.933899 1207.185425 607.596924 C1206.681885 610.441284 1207.229370 613.456177 1206.936523 616.358093 C1206.695435 618.745789 1206.723022 621.644409 1205.753540 623.400879 C1203.563354 627.368042 1205.154663 631.846680 1202.581421 635.962280 C1200.346069 639.537415 1201.214233 644.920898 1200.056152 649.333435 C1198.426270 655.544067 1196.162476 661.586792 1194.225586 667.718933 C1192.771606 672.322205 1191.600220 677.024658 1189.941528 681.550415 C1188.475586 685.550415 1186.624146 689.423523 1184.738647 693.252075 C1181.852905 699.111755 1178.974121 704.988525 1175.752930 710.665344 C1172.634644 716.160828 1169.201660 721.488953 1165.699341 726.752441 C1161.323120 733.329407 1156.927979 739.910767 1152.176636 746.215698 C1148.401855 751.224792 1144.168457 755.901001 1139.979492 760.582581 C1133.357544 767.983276 1126.816772 775.477234 1119.832642 782.526428 C1114.637695 787.769836 1109.356323 793.346680 1103.071167 796.964233 C1097.609619 800.107666 1094.273193 805.685791 1087.461060 807.571594 C1081.224854 809.298035 1076.196655 814.992798 1070.201416 818.099609 C1064.511963 821.047791 1058.162964 822.694946 1052.292358 825.333313 C1049.187622 826.728638 1046.678955 830.070007 1043.552490 830.648743 C1039.098022 831.473389 1035.909180 834.427612 1031.854614 835.767090 C1028.907715 836.740662 1026.300537 839.594604 1023.433594 839.762939 C1018.856018 840.031799 1016.132446 843.608826 1012.035095 844.587891 C1009.081665 845.293640 1006.515991 847.498413 1003.665894 848.788269 C999.107666 850.851257 994.435303 852.660217 989.850464 854.666443 C983.215942 857.569580 976.554260 860.422546 970.019714 863.539062 C963.604675 866.598511 957.309937 869.914734 951.009399 873.208069 C947.419006 875.084839 943.959167 877.210938 940.370728 879.091736 C937.984924 880.342224 935.316711 881.106201 933.058044 882.535522 C929.434143 884.828857 926.154114 887.665710 922.528992 889.956848 C917.824707 892.930115 912.781128 895.377380 908.150635 898.453186 C903.737305 901.384827 899.775330 904.990906 895.400146 907.986877 C893.230164 909.472717 890.337952 909.913818 888.193848 911.425293 C883.500610 914.733643 879.067261 918.412109 874.544739 921.960938 C869.783936 925.696716 864.429993 928.903320 860.428162 933.329346 C853.387634 941.115906 847.141907 949.625305 840.632690 957.886719 C834.493469 965.678345 828.354065 973.393799 823.773132 982.367188 C821.584351 986.654663 818.421570 990.539001 816.339478 995.058594 C813.969360 1000.203125 811.211914 1005.187134 808.356201 1010.085388 C804.722900 1016.317444 800.581177 1022.261414 797.118591 1028.581543 C794.682129 1033.028564 792.709473 1037.792847 791.077637 1042.601318 C789.094238 1048.446045 785.237976 1052.706909 780.835266 1056.698853 C779.183411 1058.196533 776.714844 1060.059692 781.717224 1060.117798 C782.464844 1060.126465 784.001160 1062.053711 783.805969 1062.514648 C782.044128 1066.675781 780.004395 1070.721191 777.992126 1074.773804 C776.058044 1078.669312 772.714722 1082.430054 772.408386 1086.434937 C771.961792 1092.272827 768.724670 1096.688965 766.752075 1101.626221 C764.776306 1106.571533 763.632324 1110.934326 765.435913 1116.049072 C766.112183 1117.966797 766.627380 1120.579102 765.861084 1122.255127 C762.865417 1128.807495 759.524719 1135.225830 755.916992 1141.465332 C753.783936 1145.154541 750.420410 1148.163940 748.484375 1151.928589 C745.585815 1157.564697 743.515198 1163.621826 740.970459 1169.446777 C739.982849 1171.707397 738.466736 1173.743652 737.542480 1176.024414 C736.261292 1179.185791 735.113770 1182.431030 734.271606 1185.732910 C733.307190 1189.514160 733.044495 1193.489136 731.918579 1197.210938 C730.667419 1201.346680 728.462708 1205.197876 727.259766 1209.343262 C725.658508 1214.860840 725.026917 1220.672607 723.271729 1226.130615 C717.460876 1244.199951 711.429382 1262.200317 705.278687 1280.157471 C702.818848 1287.338989 699.622375 1294.268311 697.166992 1301.451294 C695.965698 1304.965210 696.090515 1308.931030 694.900696 1312.450806 C693.367615 1316.986206 690.761841 1321.162476 689.269165 1325.707397 C687.486450 1331.135132 686.616150 1336.857300 684.952026 1342.330688 C681.784241 1352.749268 678.429077 1363.114014 674.947998 1373.432251 C673.737061 1377.021240 671.692139 1380.326782 670.450806 1383.908325 C669.207764 1387.494873 668.764526 1391.362549 667.474548 1394.927612 C666.013550 1398.965332 663.855957 1402.745972 662.273376 1406.746094 C660.975281 1410.026733 660.222717 1413.521240 658.961121 1416.818726 C657.545105 1420.520020 654.997192 1423.980469 654.422058 1427.770264 C653.336792 1434.921875 650.836365 1441.701782 649.488464 1448.608276 C648.261414 1454.895996 645.709778 1459.395508 641.273193 1462.985596 C638.478882 1465.246704 639.340576 1468.925537 639.828003 1469.827393 C641.531250 1472.979370 642.771973 1474.915283 640.347534 1478.755981 C637.897644 1482.637207 637.720276 1487.883423 636.050232 1492.345703 C634.371887 1496.830322 631.697510 1500.954224 630.147827 1505.472168 C627.787231 1512.354248 626.048889 1519.448120 623.989197 1526.435303 C622.714050 1530.760742 621.972839 1535.423828 619.774658 1539.233032 C618.315247 1541.761963 619.042236 1544.269653 617.973450 1546.609253 C617.059937 1548.608887 616.580139 1550.817749 616.014404 1552.962036 C615.259338 1555.823853 614.664246 1558.728271 613.895081 1561.585938 C612.988892 1564.952393 611.905884 1568.271729 611.019409 1571.642944 C610.258667 1574.536255 609.892639 1577.550537 608.937073 1580.370728 C607.963257 1583.244751 606.148438 1585.850098 605.307983 1588.748657 C604.223694 1592.488647 604.046204 1596.495361 602.918640 1600.217773 C601.666077 1604.353027 599.449280 1608.201050 598.254578 1612.347778 C596.528015 1618.340820 595.724976 1624.612915 593.820618 1630.538574 C591.885254 1636.560791 589.209106 1642.359253 586.633972 1648.156494 C584.882812 1652.098267 582.881104 1655.946045 580.739319 1659.691650 C579.128784 1662.508179 577.027283 1665.039429 575.309570 1667.800293 C573.440186 1670.805054 571.761719 1673.928345 570.000000 1677.000000 C569.166687 1677.000000 568.333313 1677.000000 567.250000 1676.750000 C566.666626 1676.144409 566.127319 1675.837036 566.031006 1675.425903 C564.573486 1669.204956 563.174561 1662.970215 561.760803 1656.739014 C560.841553 1652.687256 559.651367 1648.672974 559.086792 1644.572510 C558.651367 1641.409424 558.963989 1638.138062 559.007629 1634.915649 C559.092896 1628.623169 555.639709 1623.509766 553.507446 1617.940430 C552.087158 1614.230835 551.348877 1610.257935 549.898560 1606.562378 C548.544861 1603.112671 546.722961 1599.836426 544.957275 1596.564819 C544.440063 1595.606445 543.277954 1595.005859 542.701111 1594.063965 C542.538574 1593.798462 543.345947 1592.854614 543.809814 1592.307861 C544.725037 1591.229370 545.711182 1590.211182 546.667969 1589.167969 C541.463806 1587.618652 545.519897 1582.534546 543.750793 1580.746704 C541.264038 1578.233765 541.221558 1576.240601 543.189636 1574.487061 C547.289246 1570.834106 543.458740 1568.639404 542.083679 1566.024658 C541.475830 1564.868896 539.814392 1564.101562 539.560059 1562.952271 C537.898071 1555.442993 536.107727 1547.926147 535.139343 1540.312500 C534.528992 1535.513672 533.195740 1531.651123 529.284241 1528.649658 C528.161011 1527.787720 527.315002 1526.074341 527.091125 1524.634888 C526.657166 1521.844360 527.043945 1518.920044 526.554260 1516.145874 C526.019531 1513.116455 524.558960 1510.243164 524.092529 1507.211060 C523.654236 1504.362061 524.986328 1500.855957 523.767578 1498.593262 C521.354004 1494.112427 521.524780 1489.610107 521.522217 1484.946655 C521.522095 1484.630981 520.954773 1484.348877 520.858521 1483.994751 C520.045227 1481.003662 517.992859 1477.581421 518.799866 1475.096436 C520.037170 1471.285889 520.516357 1471.002197 516.107849 1469.864624 C515.472229 1469.700684 514.741394 1466.886475 515.008911 1466.704956 C518.028564 1464.656128 515.787720 1463.536255 514.535034 1461.941284 C513.198486 1460.239502 510.894684 1457.185303 511.404663 1456.499268 C514.048767 1452.942139 514.787659 1450.149536 512.181641 1445.960083 C510.021759 1442.488037 509.814697 1437.862305 508.088928 1434.042969 C506.135376 1429.719360 502.764587 1425.934082 501.415100 1421.488281 C500.848846 1419.622803 495.634949 1416.936401 500.846893 1414.346924 C498.675537 1411.928833 503.788177 1407.796265 499.897583 1406.674805 C493.946228 1404.959473 494.984741 1400.107788 494.132355 1396.316528 C492.940826 1391.016968 493.039886 1385.430298 491.889557 1380.117432 C490.847870 1375.306274 488.521942 1371.009277 484.264771 1367.916138 C482.666321 1366.754761 480.548401 1363.306030 480.712250 1363.157593 C485.768951 1358.577148 482.399475 1353.824829 481.636261 1348.927979 C481.096436 1345.464355 483.264984 1341.450317 482.354706 1338.206787 C481.347778 1334.618896 477.932129 1331.777954 476.085419 1328.333008 C474.528778 1325.429199 473.636261 1322.152710 472.592377 1318.994263 C470.672882 1313.186401 468.681427 1307.391479 467.100098 1301.489258 C466.578003 1299.540649 466.813843 1297.145020 467.442108 1295.191406 C468.294006 1292.542603 468.624084 1289.859741 467.082977 1287.761230 C465.180908 1285.171265 459.895294 1284.488892 462.945160 1279.445190 C458.586090 1275.193115 462.695740 1269.268677 460.020355 1264.657715 C458.965454 1262.839722 458.624786 1260.208984 457.114441 1259.129028 C452.778564 1256.028320 452.076599 1251.447510 450.996643 1246.904541 C450.348267 1244.177002 449.998260 1241.312988 448.894745 1238.780151 C448.016754 1236.764893 447.444489 1235.973999 449.834320 1234.366577 C452.164581 1232.799316 453.157867 1229.692261 451.212799 1226.722168 C449.235565 1223.702881 447.035034 1220.814087 445.259033 1217.682861 C443.371796 1214.355469 439.448334 1211.710449 441.032654 1207.054565 C441.788788 1204.832520 442.542419 1202.052246 443.493347 1200.570923 C445.936981 1196.764404 443.187531 1193.872559 442.722931 1191.057251 C441.930206 1186.253540 437.619171 1182.891235 434.030090 1179.481445 C431.021545 1176.623291 435.928284 1176.255493 435.738770 1174.635132 C435.555389 1173.066895 433.271515 1171.433472 433.544128 1170.185913 C434.149414 1167.416260 436.063873 1164.858398 434.383728 1161.915894 C432.851135 1159.231812 430.799408 1156.787231 429.650909 1153.962891 C428.991211 1152.340454 430.179810 1150.018066 429.649506 1148.281494 C428.378571 1144.119629 425.988373 1140.236572 425.147034 1136.022095 C424.036133 1130.457031 421.721588 1125.546875 419.213257 1120.604126 C418.870148 1119.927979 419.194427 1118.473999 419.745728 1117.866577 C421.323730 1116.128052 421.363190 1109.700684 419.839752 1107.973877 C415.845032 1103.445679 412.527771 1099.256104 414.628510 1091.985840 C416.041351 1087.096069 416.669098 1080.611206 410.976868 1076.269043 C409.422333 1075.083252 408.685516 1072.545410 408.063446 1070.480469 C407.043945 1067.096436 406.626007 1063.530396 405.590973 1060.152344 C404.035126 1055.074585 402.213837 1050.075684 400.412720 1045.076538 C399.191895 1041.688110 397.714050 1038.390991 396.527618 1034.991577 C394.958466 1030.495483 393.605438 1025.924316 392.068390 1021.416626 C391.498627 1019.745605 390.761475 1016.821411 389.945404 1016.766235 C385.927979 1016.494751 383.100128 1013.912781 384.044434 1010.115051 C386.062958 1001.997070 385.081940 994.491028 381.108337 987.038025 C378.331299 981.829346 375.750061 976.548401 374.565247 970.439880 C373.634766 965.642700 368.965393 961.642578 367.657471 956.826538 C366.348724 952.007507 363.730469 948.109009 361.368256 944.078308 C358.260010 938.774475 354.141968 934.069092 350.573029 929.025024 C349.217804 927.109436 347.160950 924.936646 347.222504 922.936523 C347.334442 919.299988 345.593567 916.765198 343.941010 914.039673 C343.699310 913.641113 342.091583 913.567566 342.082062 913.603149 C341.410156 916.104797 339.868469 917.070190 337.885620 915.253296 C336.020355 913.544250 335.225647 911.386230 337.979645 909.320251 C338.393860 909.009521 338.042389 906.645508 337.372620 906.161072 C336.331726 905.408081 334.715424 905.211792 333.339874 905.201294 C327.213043 905.154480 324.986908 900.278381 322.348694 896.181885 C320.790863 893.762939 320.217499 892.828308 317.094635 891.949951 C316.238403 891.709106 315.335815 891.009705 314.823517 890.266418 C309.939362 883.179810 301.153717 882.661011 294.669495 878.276917 C294.093811 877.887634 292.526123 878.053650 292.072693 878.554016 C290.159058 880.665527 287.026123 876.464111 285.455750 879.932251 C285.385590 880.087219 283.693329 875.577759 283.549194 874.872437 C283.379669 874.042969 282.592285 872.945557 281.847626 872.725159 C280.857483 872.432190 279.266449 873.401550 278.597321 872.915283 C273.886200 869.491821 269.461456 865.669006 264.700928 862.321106 C262.379120 860.688171 259.599396 859.622559 256.908081 858.618835 C253.106506 857.201111 248.526917 856.948242 245.493225 854.617920 C241.368546 851.449646 238.377808 847.960938 232.163818 849.693909 C229.521744 850.430725 225.653931 848.286560 222.854935 846.601562 C218.346893 843.887756 214.345306 840.347778 209.972672 837.389038 C206.760483 835.215393 203.480438 832.885498 199.880005 831.633728 C197.537415 830.819275 194.567001 831.848267 191.874222 831.974304 C191.276840 832.002319 190.664276 831.705811 190.058716 831.558716 C190.255219 831.323059 190.411346 830.940796 190.654312 830.873840 C193.886978 829.983337 190.810898 826.659180 192.817627 825.317627 C191.081070 824.878479 189.119751 824.792542 187.684738 823.879395 C186.680054 823.240112 183.244980 822.234619 186.696335 819.943787 C187.371887 819.495300 187.565765 818.321228 187.981812 817.481812 C186.654541 817.581787 185.316483 817.611084 184.004517 817.811401 C183.343338 817.912415 182.349915 818.723328 182.150894 818.534424 C178.930084 815.478149 175.940872 812.167297 172.614243 809.237732 C171.110687 807.913696 168.843521 806.300659 167.161819 806.534912 C159.846573 807.553711 153.557724 804.967224 149.964905 798.863464 C149.248688 797.646729 148.170380 796.596802 147.107239 795.638245 C140.973709 790.107788 134.168243 785.170776 128.803665 778.981079 C123.225990 772.545593 114.790352 768.835205 112.161148 759.225647 C110.929405 754.723633 103.805191 753.999451 98.832603 752.659973 C97.558708 752.316772 96.327354 751.570312 95.060104 751.530579 C94.152832 751.502075 93.218269 752.342957 92.295868 752.795898 C92.923309 751.637878 93.347168 750.291565 94.213623 749.354492 C97.901138 745.366577 97.684593 744.441406 92.625549 741.978027 C87.073456 739.274597 81.522301 736.545776 76.150368 733.510132 C74.553879 732.607971 70.823875 731.042725 75.829269 728.824402 C77.333099 728.157898 77.907677 725.394653 78.907974 723.592041 C77.551437 723.394714 76.195061 723.033203 74.838303 723.031738 C71.193588 723.027771 68.326363 721.628174 67.061394 718.182678 C65.782837 714.700134 65.022636 711.028870 63.965454 707.461060 C63.858269 707.099365 63.292931 706.843323 62.901508 706.600647 C57.840683 703.462769 52.790138 700.307678 47.700500 697.217102 C44.461899 695.250549 47.677795 694.250610 48.489532 694.153870 C51.673374 693.774170 52.718006 692.020569 52.235634 689.210083 C52.040932 688.075623 51.241432 686.970642 50.505169 686.015686 C46.037426 680.220703 41.403797 674.550537 37.047661 668.674072 C35.099228 666.045654 33.431374 663.142822 32.066750 660.167053 C30.725210 657.241516 29.964382 654.053345 28.882656 651.003845 C27.970964 648.433716 26.849834 645.933289 26.033634 643.335327 C25.279932 640.936279 25.212891 638.250244 24.129732 636.040527 C21.734079 631.153259 18.748491 626.557373 16.288134 621.698608 C15.051914 619.257385 15.993235 618.243347 19.244905 617.744934 C20.696302 617.522522 23.084862 613.198975 22.532364 612.005737 C19.997360 606.531067 17.403116 601.077515 15.109308 595.501465 C14.434643 593.861389 15.049721 591.706543 14.429276 590.025452 C12.449116 584.660217 9.796388 579.520203 8.125385 574.071716 C6.941805 570.212524 9.073853 566.599365 11.182230 563.350464 C13.356236 560.000366 13.686777 555.579895 11.630405 554.008972 C5.579225 549.386230 3.186711 540.147644 6.864931 532.754700 C8.744324 528.977295 11.048791 524.370361 7.596081 520.277527 C5.597146 517.907959 5.645674 516.584961 7.775962 514.591919 C8.637639 513.785706 9.450682 512.012451 9.144815 511.037170 C8.022577 507.458496 5.967132 504.133789 5.140654 500.513123 C4.453770 497.504028 4.695521 494.176514 5.074174 491.056580 C5.591186 486.796631 3.931273 484.275513 0.000000 483.000000 C0.000000 483.000000 0.000000 482.500000 0.250001 482.250000 C1.407328 481.759338 2.358768 481.623077 3.214921 481.261322 C9.452969 478.625549 5.530219 472.046021 8.327910 467.876740 C9.969427 465.430481 10.085365 461.978058 10.971897 459.003357 C12.230866 454.779053 13.893950 450.795013 12.764794 446.035797 C12.103866 443.250122 12.630846 439.740173 13.795149 437.066223 C15.603252 432.913666 18.246672 429.083496 20.833796 425.321442 C24.448860 420.064575 21.650097 413.598389 24.496128 408.077881 C25.874846 405.403534 24.889875 401.590576 25.989382 398.675720 C28.305195 392.536377 30.289227 385.830872 34.311554 380.913666 C37.624252 376.863983 37.235146 373.145203 36.837631 369.248566 C36.402370 364.981934 39.582455 363.401947 41.841873 362.210083 C46.016483 360.007935 49.946171 354.584595 47.521248 351.299805 C44.391369 347.060059 46.341633 342.580811 46.467346 338.637634 C46.577656 335.177612 50.460499 331.647308 53.105034 328.508636 C56.158665 324.884430 60.029026 321.923767 62.913063 318.187408 C66.625137 313.378326 69.786545 308.133118 73.025627 302.975555 C74.273132 300.989197 74.966980 298.663300 76.114586 296.604370 C78.850235 291.696320 81.311707 286.565674 84.617744 282.063812 C88.337784 276.998230 93.069946 272.664246 95.001190 266.419983 C95.739799 264.031891 96.289833 261.558868 97.291405 259.285645 C98.426598 256.709137 99.782608 254.182449 101.381859 251.868576 C103.982666 248.105667 106.126381 243.304169 109.769402 241.132187 C117.769188 236.362656 123.637482 229.775024 129.734314 223.046326 C133.960953 218.381653 139.463669 214.823471 144.608643 211.061432 C147.231201 209.143768 150.387024 207.972794 153.179047 206.263733 C155.224457 205.011703 156.923050 203.149033 159.034149 202.057266 C163.899857 199.540924 165.032883 196.749405 163.069809 191.748291 C162.679169 190.753143 162.816605 188.593628 163.340714 188.354950 C166.294373 187.009933 169.425507 186.040741 172.528976 185.045929 C173.638733 184.690201 175.210220 185.025955 175.942184 184.357559 C182.480301 178.387039 188.742386 172.108261 195.392532 166.269669 C197.623062 164.311340 200.814529 163.487808 203.426529 161.912964 C206.366974 160.140106 209.377701 158.366577 211.947784 156.123459 C216.065460 152.529663 219.549576 148.164291 223.858826 144.849609 C227.518143 142.034851 231.903076 138.520355 236.076660 138.370483 C243.973740 138.086899 247.897720 134.688965 251.274521 128.013748 C253.128403 124.349014 256.071075 119.423988 262.274933 120.934692 C263.681824 121.277290 265.811371 121.380966 266.702789 120.583023 C269.066315 118.467384 270.759857 115.618309 273.047913 113.399132 C275.457489 111.062065 278.043274 107.694641 280.911011 107.283981 C287.735291 106.306732 293.270386 102.805405 298.738525 99.490761 C305.875702 95.164368 312.180450 89.486687 319.048431 84.683640 C321.847473 82.726166 325.047028 80.789131 328.311737 80.189514 C332.396332 79.439301 336.642120 79.998444 340.342407 77.280273 C341.921295 76.120461 344.051422 75.683395 345.963715 75.010780 C350.283417 73.491425 354.880585 72.522697 358.894257 70.428108 C364.759766 67.367111 370.013977 63.128334 375.897125 60.109409 C381.710632 57.126205 388.033722 55.151981 394.028046 52.497540 C396.606903 51.355568 398.775269 48.773621 401.385132 48.323048 C406.588562 47.424728 410.316742 43.679634 415.169952 42.236568 C417.376740 41.580395 419.315094 39.325363 421.440491 39.228580 C426.769135 38.985935 430.083435 34.684704 434.961639 33.464695 C441.266785 31.887825 447.291504 29.194242 453.461456 27.052065 C453.664337 26.981627 454.490417 27.791901 454.424225 28.003038 C453.790405 30.025242 453.091766 32.033588 452.282684 33.992622 C451.438965 36.035435 450.352661 37.980453 449.552155 40.038136 C448.272095 43.328411 447.157349 46.682613 445.941040 49.998177 C444.831604 53.022537 443.613861 56.008625 442.563904 59.052979 C441.225098 62.934608 440.180725 66.926086 438.682404 70.741783 C437.461914 73.849922 435.512573 76.675819 434.336975 79.796585 C432.968597 83.429001 432.387115 87.367477 430.920929 90.950882 C429.284729 94.949989 426.738647 98.579422 425.133453 102.587936 C423.131378 107.587517 421.855713 112.874123 419.950348 117.917404 C418.183105 122.595100 416.123138 127.174393 413.969635 131.690964 C411.106720 137.695236 408.008484 143.586990 405.067749 149.554855 C404.706482 150.287979 404.787170 151.226776 404.500580 152.010864 C403.157532 155.685303 401.888794 159.395813 400.334747 162.981293 C399.175140 165.656860 397.388611 168.067780 396.301208 170.765823 C394.971527 174.065002 394.338043 177.651871 392.934204 180.912262 C391.219940 184.893631 388.721405 188.545975 387.109863 192.560501 C385.460297 196.669785 384.757874 201.158585 383.116608 205.272064 C381.454010 209.439026 378.789032 213.214554 377.215424 217.406418 C375.107208 223.022263 374.544098 229.396484 371.641876 234.490356 C368.083069 240.736633 366.504547 247.321594 366.171265 254.037766 C365.546356 266.631989 365.636719 279.185394 363.514099 291.752167 C362.493652 297.793518 364.403656 304.055054 362.405304 310.640686 C360.490387 316.951294 361.663727 324.213684 361.573425 331.059021 C361.487305 337.587585 363.942474 344.307526 360.031738 350.531738 C363.013306 359.113007 359.329651 368.099152 361.855194 376.840179 C363.755127 383.415863 364.775360 390.264771 368.031128 396.379089 C371.722870 403.312164 375.008270 410.597717 379.655762 416.848602 C384.584778 423.478119 390.930389 429.049713 396.609833 435.127777 C399.959991 438.713013 403.040344 442.569489 406.572998 445.959015 C409.428986 448.699280 412.929535 450.376953 417.020386 451.095123 C421.858765 451.944580 423.763763 448.530823 425.757996 445.623505 C430.801086 438.271332 435.461853 430.657898 440.334290 423.187286 C442.483032 419.892822 446.049103 416.912018 446.660065 413.388000 C447.342285 409.453094 449.648773 406.657562 452.082581 405.780914 C458.720551 403.390015 459.373138 396.441193 463.676270 392.278595 C468.017273 388.079315 469.540222 381.102661 473.485718 376.323547 C478.143982 370.681091 484.091888 366.106903 489.451660 361.038910 C494.384430 356.374695 498.674408 351.405823 500.291992 344.418427 C500.823730 342.121368 502.639130 339.773010 505.999664 339.403717 C512.187988 338.723724 513.594543 332.947266 516.125916 328.662109 C518.158142 325.221893 518.768555 320.828156 521.149048 317.733917 C524.724121 313.086945 529.356445 309.264099 533.413086 304.971619 C535.036133 303.254242 537.603516 302.308136 537.543152 299.088837 C537.511108 297.375977 538.676270 295.523651 539.639648 293.940369 C540.715881 292.171722 542.231934 289.200745 543.459412 289.248566 C548.776245 289.455627 550.862976 286.103546 553.029297 282.327881 C554.856812 279.142639 556.814331 276.014893 558.939819 273.021790 C561.774963 269.029388 564.983582 265.298187 567.747070 261.259949 C570.923889 256.617706 573.756165 251.741074 576.803894 247.008606 C578.465637 244.428314 580.203430 241.891861 582.013916 239.413773 C584.819092 235.574112 587.581787 231.689865 590.618347 228.037262 C592.815308 225.394699 595.484131 223.148651 597.797668 220.594604 C598.178650 220.173935 598.054443 218.504974 597.755981 218.379028 C593.811523 216.714401 597.165527 215.459061 598.079102 214.506622 C602.537415 209.858719 607.335999 205.527023 611.656006 200.758942 C618.149841 193.591644 624.326355 186.137222 630.730225 178.886536 C631.023804 178.554123 632.507629 178.727783 632.955200 179.162231 C636.767822 182.863220 640.842651 186.076889 642.595215 191.752289 C643.833557 195.762558 647.684998 198.911087 650.059814 202.641708 C652.167786 205.953217 653.688477 209.636108 655.761230 212.973221 C658.024414 216.616898 660.826050 219.930664 663.028259 223.606750 C666.037231 228.629776 668.538391 233.958038 671.568665 238.967026 C673.786011 242.632217 676.641052 245.906479 678.960510 249.516464 C681.134766 252.900635 682.837280 256.587402 685.003052 259.977722 C687.871948 264.468781 690.989868 268.800812 693.998596 273.202698 C694.174622 273.460236 694.338501 273.726837 694.494873 273.996826 C697.004883 278.330505 699.364929 282.759979 702.062073 286.973755 C704.830261 291.298676 708.084717 295.313232 710.834229 299.648895 C713.363831 303.637878 715.359436 307.964294 717.866150 311.969452 C719.676758 314.862366 722.182068 317.325378 723.947449 320.240631 C727.226562 325.655792 730.013977 331.371155 733.346619 336.750580 C735.773804 340.668549 738.786621 344.220184 741.460205 347.990570 C742.646179 349.663177 743.744568 351.417572 744.692810 353.233948 C745.841614 355.434509 746.612671 357.844269 747.869202 359.973450 C749.416382 362.595184 751.444641 364.932892 752.994324 367.553375 C755.004822 370.953094 756.565979 374.624390 758.653381 377.971191 C761.258423 382.147827 764.458435 385.963440 766.937317 390.206207 C770.276672 395.921753 772.963440 402.019867 776.327576 407.719269 C778.898804 412.075562 782.328003 415.922729 784.936462 420.260376 C787.935242 425.247040 790.164124 430.704376 793.254578 435.626221 C796.476196 440.756805 800.398193 445.442474 803.877930 450.417786 C806.511230 454.182922 808.903381 458.115845 811.454041 461.940002 C813.594360 465.148895 816.072327 468.163177 817.924622 471.525970 C820.355469 475.939362 822.383850 476.868317 825.606873 473.813599 C831.126953 468.581512 836.603821 463.276215 841.737305 457.670502 C848.815125 449.941498 855.582703 441.926788 862.419922 433.980042 C863.672485 432.524200 864.650574 430.826508 865.706665 429.208679 C867.920898 425.817017 870.203979 422.464081 872.265869 418.981079 C873.926270 416.176361 875.662048 413.329895 876.733337 410.280304 C879.207764 403.236664 875.867310 395.285828 879.918945 388.418945 C876.252075 381.877625 883.545166 378.174042 884.093994 372.599670 C884.408752 369.403229 887.242615 366.468231 887.615479 363.261230 C888.276489 357.576202 888.143127 351.766174 887.944824 346.022186 C887.700195 338.936157 887.845642 331.846252 887.396362 324.740936 C887.058044 319.391235 887.686218 313.653320 888.065308 308.101410 C888.225159 305.760712 889.556030 303.470276 889.562073 301.154907 C889.575195 296.151337 886.882446 290.947235 891.000000 286.342987 C890.609497 286.119141 890.238342 285.848267 889.825562 285.678741 C885.826904 284.036591 883.095337 281.730347 883.924316 276.732208 C884.354675 274.137268 884.038513 271.411438 883.990051 268.746002 C883.932190 265.563293 884.786011 261.886566 883.489563 259.305664 C880.982239 254.314316 881.188660 249.124817 880.531982 243.960281 C880.284058 242.010712 880.092896 240.032776 879.599304 238.139877 C878.491516 233.891418 876.624512 229.749069 876.177307 225.448029 C875.789001 221.714340 875.146301 218.135925 873.979431 214.632141 C871.593933 207.469131 868.632263 200.611908 864.110962 194.435898 C862.766052 192.598801 862.826416 189.793396 861.885620 187.583755 C860.865417 185.187637 857.844727 182.336166 858.463013 180.788925 C860.507629 175.672852 847.534241 174.163498 855.810852 168.310883 C855.692993 168.193054 855.526611 168.096420 855.464539 167.954224 C854.144226 164.933624 854.541870 160.909592 850.246399 159.614197 C849.495850 159.387878 849.285828 157.708679 848.586731 156.910095 C846.308289 154.307724 847.346313 150.023865 844.000000 147.750000 C843.764587 146.931229 843.679688 146.199646 843.269348 145.820084 C840.551819 143.306717 837.413208 141.157623 835.090637 138.331909 C832.309387 134.948090 830.200317 131.010803 827.809753 127.307022 C826.014771 124.525810 823.747559 121.926628 822.558411 118.904884 C820.600952 113.931091 818.110046 109.057983 813.653198 106.525169 C809.945496 104.418137 807.365906 102.646309 805.730408 98.381897 C804.420898 94.967224 800.546753 92.600883 798.152100 89.505287 C797.209717 88.287086 797.096375 86.370659 796.781494 84.738228 C796.372803 82.620255 796.139771 80.468391 795.831116 78.331131 C794.220764 79.023186 792.616028 79.729042 790.994812 80.394630 C790.699585 80.515831 790.290344 80.594032 790.012390 80.487251 C785.876038 78.897964 785.000366 75.197624 783.966248 71.465591 C783.692993 70.479416 782.387268 69.561073 781.341187 69.054436 C779.386108 68.107529 776.904297 67.914192 775.354492 66.579582 C774.283264 65.657097 774.426453 63.340164 773.996826 61.654026 C772.541565 55.942627 770.584900 50.990833 764.230652 48.467659 C759.761780 46.693165 755.427124 43.710999 752.057129 40.265816 C748.110046 36.230583 745.313660 31.079536 741.945312 26.465609 C738.979492 22.403009 735.888977 18.431684 732.901733 14.384472 C731.294983 12.207686 729.160950 10.142236 728.432373 7.680930 C727.823059 5.622487 723.588928 0.706024 731.000000 1.499274 C731.000000 0.999516 731.000000 0.499758 731.000000 0.000000 M454.000000 1239.500000 C453.783813 1238.333374 453.567596 1237.166626 453.351410 1236.000122 C452.927490 1236.140259 452.503540 1236.280396 452.079559 1236.420410 C452.553040 1237.613647 453.026520 1238.806763 454.000000 1239.500000 M638.499939 1443.999878 C637.405762 1444.572388 636.311523 1445.144897 635.217346 1445.717407 C636.452759 1446.337158 637.688110 1446.956787 638.923584 1447.576538 C638.949036 1446.551025 638.974548 1445.525513 638.499939 1443.999878 z"/><path class="selected"  fill="#000000" opacity="1.000000" stroke="none" 
 	d="
M843.750000 147.999969 C843.291809 148.666641 842.583618 149.333313 841.875427 149.999969 C841.583618 149.555542 841.291809 149.111099 841.000000 148.666656 C841.833313 148.444427 842.666687 148.222214 843.750000 147.999969 z"/></svg>